<?xml version="1.0" encoding="UTF-8"?>
<svg width="16px" height="16px" viewBox="0 0 16 16" version="1.1" xmlns="http://www.w3.org/2000/svg" xmlns:xlink="http://www.w3.org/1999/xlink">
    <!-- Generator: Sketch 53.2 (72643) - https://sketchapp.com -->
    <title>Calendar</title>
    <desc>Created with Sketch.</desc>
    <g id="V.03-typeface" stroke="none" stroke-width="1" fill="none" fill-rule="evenodd">
        <g id="Home---Tag_inactive" transform="translate(-71.000000, -601.000000)" fill="#4A4A4A" fill-rule="nonzero">
            <g id="Planning" transform="translate(68.000000, 489.000000)">
                <g id="Filter-list" transform="translate(2.000000, 85.000000)">
                    <g id="Date">
                        <g id="Content" transform="translate(1.000000, 27.000000)">
                            <g id="Calendar">
                                <path d="M13.3333333,13.3333333 L10.6666667,13.3333333 L10.6666667,10.6666667 L13.3333333,10.6666667 L13.3333333,13.3333333 Z M9.33333333,6.66666667 L6.66666667,6.66666667 L6.66666667,9.33333333 L9.33333333,9.33333333 L9.33333333,6.66666667 Z M13.3333333,6.66666667 L10.6666667,6.66666667 L10.6666667,9.33333333 L13.3333333,9.33333333 L13.3333333,6.66666667 Z M5.33333333,10.6666667 L2.66666667,10.6666667 L2.66666667,13.3333333 L5.33333333,13.3333333 L5.33333333,10.6666667 Z M9.33333333,10.6666667 L6.66666667,10.6666667 L6.66666667,13.3333333 L9.33333333,13.3333333 L9.33333333,10.6666667 Z M5.33333333,6.66666667 L2.66666667,6.66666667 L2.66666667,9.33333333 L5.33333333,9.33333333 L5.33333333,6.66666667 Z M16,1.33333333 L16,16 L0,16 L0,1.33333333 L2,1.33333333 L2,2 C2,2.73533333 2.598,3.33333333 3.33333333,3.33333333 C4.06866667,3.33333333 4.66666667,2.73533333 4.66666667,2 L4.66666667,1.33333333 L11.3333333,1.33333333 L11.3333333,2 C11.3333333,2.73533333 11.9313333,3.33333333 12.6666667,3.33333333 C13.402,3.33333333 14,2.73533333 14,2 L14,1.33333333 L16,1.33333333 Z M14.6666667,5.33333333 L1.33333333,5.33333333 L1.33333333,14.6666667 L14.6666667,14.6666667 L14.6666667,5.33333333 Z M13.3333333,0.666666667 C13.3333333,0.298666667 13.0353333,0 12.6666667,0 C12.298,0 12,0.298666667 12,0.666666667 L12,2 C12,2.368 12.298,2.66666667 12.6666667,2.66666667 C13.0353333,2.66666667 13.3333333,2.368 13.3333333,2 L13.3333333,0.666666667 Z M4,2 C4,2.368 3.702,2.66666667 3.33333333,2.66666667 C2.96466667,2.66666667 2.66666667,2.368 2.66666667,2 L2.66666667,0.666666667 C2.66666667,0.298666667 2.96466667,0 3.33333333,0 C3.702,0 4,0.298666667 4,0.666666667 L4,2 Z" id="Shape"></path>
                            </g>
                        </g>
                    </g>
                </g>
            </g>
        </g>
    </g>
</svg>