<svg xmlns="http://www.w3.org/2000/svg" viewBox="0 0 13.02 17"><defs><style>.cls-1{fill:#fff;}.cls-2{fill:#4a4a4a;}.cls-3{fill:none;stroke:#4a4a4a;stroke-miterlimit:10;}</style></defs><title>icon_genre4</title><g id="Calque_2" data-name="Calque 2"><g id="Calque_1-2" data-name="Calque 1"><rect class="cls-1" x="2.01" y="16" width="9" height="1"/><polygon class="cls-2" points="11.01 16 2.01 16 2.01 17 11.01 17 11.01 16 11.01 16"/><rect class="cls-1" x="6.01" y="12.5" width="1" height="3"/><path class="cls-2" d="M6.51,13v0m1-1h-2v4h2V12Z"/><path class="cls-2" d="M6.51,12.5A3.5,3.5,0,0,1,3,9V4a3.5,3.5,0,0,1,7,0V9A3.5,3.5,0,0,1,6.51,12.5Z"/><path class="cls-2" d="M6.51,1a3,3,0,0,1,3,3V9a3,3,0,0,1-6,0V4a3,3,0,0,1,3-3m0-1a4,4,0,0,0-4,4V9a4,4,0,0,0,8,0V4a4,4,0,0,0-4-4Z"/><path class="cls-3" d="M12.52,6V8a6,6,0,0,1-5.85,6A6.21,6.21,0,0,1,.5,7.74V6"/></g></g></svg>