<?xml version="1.0" encoding="UTF-8"?>
<svg width="21px" height="21px" viewBox="0 0 21 21" version="1.1" xmlns="http://www.w3.org/2000/svg" xmlns:xlink="http://www.w3.org/1999/xlink">
    <!-- Generator: Sketch 53.2 (72643) - https://sketchapp.com -->
    <title>FB</title>
    <desc>Created with Sketch.</desc>
    <g id="Symbols" stroke="none" stroke-width="1" fill="none" fill-rule="evenodd">
        <g id="Footer-Copy-2" transform="translate(-997.000000, -73.000000)" fill="#FFFFFF">
            <g id="Footer-Copy">
                <g id="Réseaux-sociaux" transform="translate(997.000000, 42.000000)">
                    <g id="RS-logos" transform="translate(0.000000, 31.000000)">
                        <path d="M19.8408984,1.85719243e-08 L1.15828127,1.85719243e-08 C0.518400602,0.000339708106 -0.000113304782,0.519220835 1.85719243e-08,1.15910158 L1.85719243e-08,19.8417187 C0.000452838034,20.4815525 0.519267679,21.0000001 1.15910158,21 L11.2177734,21 L11.2177734,12.8789062 L8.49023438,12.8789062 L8.49023438,9.70019531 L11.2177734,9.70019531 L11.2177734,7.36230469 C11.2177734,4.64994142 12.8741894,3.17296876 15.2939062,3.17296876 C16.4528027,3.17296876 17.4488672,3.25930665 17.7392578,3.29786134 L17.7392578,6.13183595 L16.0654101,6.13183595 C14.7529101,6.13183595 14.4990234,6.75711915 14.4990234,7.67463868 L14.4990234,9.70019531 L17.6467676,9.70019531 L17.2366113,12.8789062 L14.4990234,12.8789062 L14.4990234,21 L19.8408984,21 C20.1483279,21.0000544 20.4431816,20.8779526 20.6605671,20.6605671 C20.8779526,20.4431816 21.0000544,20.1483279 21,19.8408984 L21,1.15828127 C20.9996603,0.518400602 20.4807792,-0.000113304782 19.8408984,1.85719243e-08 Z" id="FB"></path>
                    </g>
                </g>
            </g>
        </g>
    </g>
</svg>