<?xml version="1.0" encoding="utf-8"?><svg xmlns="http://www.w3.org/2000/svg" viewBox="0 0 255.5 104.5"><title>Fichier 9</title><g id="Calque_2" data-name="Calque 2"><g id="Calque_5" data-name="Calque 5"><path d="M2.35,1.5h13.8c8.2,0,13.3,4.65,13.3,11.7v.1c0,7.85-6.3,12-14,12H8.5V36.5H2.35Zm13.3,18.2c4.65,0,7.55-2.6,7.55-6.25v-.1c0-4.1-2.95-6.25-7.55-6.25H8.5V19.7Z"/><path d="M34.75,26.9V10.1h6v15c0,4.1,2.05,6.4,5.65,6.4S52.4,29.1,52.4,25V10.1h6.1V36.5H52.4V32.4a9.5,9.5,0,0,1-8.25,4.65C38.2,37.05,34.75,33.05,34.75,26.9Z"/><path d="M72.1,32.4v4.1h-6V0h6V14.5a10.57,10.57,0,0,1,9-4.95c6.2,0,12.25,4.9,12.25,13.7v.1c0,8.75-6,13.7-12.25,13.7A10.78,10.78,0,0,1,72.1,32.4Zm15.1-9v-.1c0-5.1-3.45-8.45-7.55-8.45S72,18.2,72,23.25v.1c0,5,3.6,8.45,7.7,8.45S87.2,28.55,87.2,23.35Z"/><path d="M100,0h6V36.5h-6Z"/><path d="M114,.3h6.5V6.05H114Zm.25,9.8h6V36.5h-6Z"/><path d="M126.05,33.05l2.7-4.1a14.94,14.94,0,0,0,8.65,3.25c2.6,0,4.1-1.1,4.1-2.85v-.1c0-2.05-2.8-2.75-5.9-3.7-3.9-1.1-8.25-2.7-8.25-7.75v-.1c0-5,4.15-8,9.4-8a18.3,18.3,0,0,1,9.7,3l-2.4,4.3a15.32,15.32,0,0,0-7.45-2.5c-2.35,0-3.7,1.1-3.7,2.6v.1c0,2,2.85,2.75,5.95,3.75,3.85,1.2,8.2,3,8.2,7.7v.1c0,5.55-4.3,8.3-9.8,8.3A18.55,18.55,0,0,1,126.05,33.05Z"/><path d="M153.25,0h6.05V14.15a9.57,9.57,0,0,1,8.25-4.6c5.95,0,9.4,4,9.4,10.1V36.5h-6v-15c0-4.1-2.05-6.45-5.65-6.45s-5.95,2.45-5.95,6.55V36.5h-6.05Z"/><path d="M184.35.3h6.5V6.05h-6.5Zm.25,9.8h6.05V36.5H184.6Z"/><path d="M198.55,10.1h6v4.05a9.57,9.57,0,0,1,8.25-4.6c6,0,9.4,4,9.4,10.1V36.5H216.2v-15c0-4.1-2-6.45-5.65-6.45s-6,2.45-6,6.55V36.5h-6Z"/><path d="M229.5,41.45l2.25-4.55a17.31,17.31,0,0,0,9.4,2.8c5.4,0,8.35-2.8,8.35-8.1V29.55c-2.2,2.85-4.95,4.85-9.3,4.85a11.86,11.86,0,0,1-12-12.35V22c0-7.8,5.85-12.4,12-12.4a11.39,11.39,0,0,1,9.25,4.5v-4h6.05v21c0,4.45-1.15,7.75-3.35,9.95-2.4,2.4-6.1,3.55-10.85,3.55A22.74,22.74,0,0,1,229.5,41.45ZM249.55,22v-.1c0-4.3-3.55-7.25-7.75-7.25s-7.5,2.9-7.5,7.25V22a7.19,7.19,0,0,0,7.5,7.25C246,29.25,249.55,26.3,249.55,22Z"/><path d="M0,91.4,3.7,87c3.35,2.9,6.75,4.55,11.05,4.55,3.8,0,6.2-1.8,6.2-4.4v-.1c0-2.5-1.4-3.85-7.9-5.35C5.6,79.9,1.4,77.7,1.4,71.25v-.1c0-6,5-10.15,12-10.15a19.4,19.4,0,0,1,12.7,4.4l-3.3,4.65a15.9,15.9,0,0,0-9.5-3.6c-3.6,0-5.7,1.85-5.7,4.15v.1c0,2.7,1.6,3.9,8.35,5.5,7.4,1.8,11.2,4.45,11.2,10.25v.1C27.1,93.1,22,97,14.6,97A21.56,21.56,0,0,1,0,91.4Z"/><path d="M33.65,70.1H39.7v4.4a10.57,10.57,0,0,1,9-5c6.2,0,12.25,4.9,12.25,13.7v.1c0,8.75-6,13.7-12.25,13.7a10.78,10.78,0,0,1-9-4.65v12.1H33.65ZM54.8,83.35v-.1c0-5.1-3.45-8.45-7.55-8.45s-7.7,3.4-7.7,8.45v.1c0,5.05,3.6,8.45,7.7,8.45S54.8,88.55,54.8,83.35Z"/><path d="M67.2,60h6V74.15a9.57,9.57,0,0,1,8.25-4.6c6,0,9.4,4,9.4,10.1V96.5H84.85v-15c0-4.1-2-6.45-5.65-6.45s-6,2.45-6,6.55V96.5h-6Z"/><path d="M96.75,83.4v-.1c0-7.55,5.35-13.75,12.9-13.75,8.4,0,12.65,6.6,12.65,14.2,0,.55,0,1.1-.1,1.7H102.8a7.37,7.37,0,0,0,7.6,6.7A9.59,9.59,0,0,0,117.55,89l3.55,3.15a13.35,13.35,0,0,1-10.8,4.95C102.65,97.1,96.75,91.55,96.75,83.4Zm19.55-2c-.4-3.9-2.7-7-6.7-7-3.7,0-6.3,2.85-6.85,7Z"/><path d="M128.4,70.1h6v6c1.65-4,4.7-6.65,9.35-6.45V76h-.35c-5.3,0-9,3.45-9,10.45v10h-6Z"/><path d="M146.7,83.4v-.1c0-7.55,5.35-13.75,12.9-13.75,8.4,0,12.65,6.6,12.65,14.2,0,.55-.05,1.1-.1,1.7h-19.4a7.37,7.37,0,0,0,7.6,6.7A9.59,9.59,0,0,0,167.5,89l3.55,3.15a13.35,13.35,0,0,1-10.8,4.95C152.6,97.1,146.7,91.55,146.7,83.4Zm19.55-2c-.4-3.9-2.7-7-6.7-7-3.7,0-6.3,2.85-6.85,7Z"/></g></g></svg>