<?xml version="1.0" encoding="UTF-8"?>
<svg width="21px" height="21px" viewBox="0 0 21 21" version="1.1" xmlns="http://www.w3.org/2000/svg" xmlns:xlink="http://www.w3.org/1999/xlink">
    <!-- Generator: Sketch 53.2 (72643) - https://sketchapp.com -->
    <title>Shape</title>
    <desc>Created with Sketch.</desc>
    <g id="Symbols" stroke="none" stroke-width="1" fill="none" fill-rule="evenodd">
        <g id="Footer-Copy-2" transform="translate(-1038.000000, -73.000000)" fill="#FFFFFF" fill-rule="nonzero">
            <g id="Footer-Copy">
                <g id="Réseaux-sociaux" transform="translate(997.000000, 42.000000)">
                    <g id="RS-logos" transform="translate(0.000000, 31.000000)">
                        <g id="Twitter" transform="translate(41.000000, 0.000000)">
                            <path d="M18.375,21 L2.625,21 C1.176,21 0,19.824 0,18.375 L0,2.625 C0,1.176 1.176,0 2.625,0 L18.375,0 C19.824,0 21,1.176 21,2.625 L21,18.375 C21,19.824 19.824,21 18.375,21 Z M8.064,15.834 C13.01475,15.834 15.72375,11.7285 15.72375,8.17425 C15.72375,8.05875 15.72375,7.94325 15.7185,7.82775 C16.2435,7.44975 16.70025,6.972 17.0625,6.43125 C16.5795,6.6465 16.05975,6.78825 15.51375,6.8565 C16.07025,6.52575 16.4955,5.9955 16.70025,5.3655 C16.1805,5.67525 15.603,5.89575 14.98875,6.0165 C14.49525,5.4915 13.797,5.166 13.02525,5.166 C11.5395,5.166 10.332,6.3735 10.332,7.85925 C10.332,8.06925 10.35825,8.274 10.40025,8.4735 C8.16375,8.36325 6.17925,7.287 4.851,5.6595 C4.62,6.0585 4.48875,6.5205 4.48875,7.014 C4.48875,7.9485 4.9665,8.77275 5.68575,9.25575 C5.24475,9.24 4.83,9.11925 4.46775,8.91975 C4.46775,8.93025 4.46775,8.94075 4.46775,8.9565 C4.46775,10.2585 5.397,11.3505 6.6255,11.59725 C6.39975,11.66025 6.1635,11.69175 5.91675,11.69175 C5.7435,11.69175 5.5755,11.676 5.41275,11.6445 C5.754,12.7155 6.7515,13.4925 7.9275,13.5135 C7.0035,14.238 5.84325,14.6685 4.58325,14.6685 C4.368,14.6685 4.15275,14.658 3.94275,14.63175 C5.12925,15.38775 6.54675,15.834 8.064,15.834 L8.064,15.834 Z" id="Shape"></path>
                        </g>
                    </g>
                </g>
            </g>
        </g>
    </g>
</svg>